 http://www.silvertorrent.org

 
http://www.shotpix.com/images/08096634903738710469.png
 
http://www.imdb.com/title/tt1931533/

 
http://cdn.piczend.com/images/WmCXs4CQ/1357602939_seven.jpg


Seven Psychopaths 2012 DVDRip R5 XViD-TiCKLE TiME





Format                                   : AVI
Format/Info                              : Audio Video Interleave
File size                                : 1.40 GiB
Duration                                 : 1h 45mn
Overall bit rate                         : 1 891 Kbps
Writing application                      : VirtualDubMod 1.5.10.3 | www.virtualdub-fr.org || (build 2550/release)
Writing library                          : VirtualDub build 32842/release

Video
ID                                       : 0
Format                                   : MPEG-4 Visual
Format profile                           : Advanced Simple@L5
Format settings, BVOP                    : 2
Format settings, QPel                    : No
Format settings, GMC                     : No warppoints
Format settings, Matrix                  : Default (H.263)
Muxing mode                              : Packed bitstream
Codec ID                                 : XVID
Codec ID/Hint                            : XviD
Duration                                 : 1h 45mn
Bit rate                                 : 1 658 Kbps
Width                                    : 704 pixels
Height                                   : 288 pixels
Display aspect ratio                     : 2.40:1
Frame rate                               : 25.000 fps
Color space                              : YUV
Chroma subsampling                       : 4:2:0
Bit depth                                : 8 bits
Scan type                                : Progressive
Compression mode                         : Lossy
Bits/(Pixel*Frame)                       : 0.327
Stream size                              : 1.22 GiB (88%)
Writing library                          : XviD 64

Audio
ID                                       : 1
Format                                   : MPEG Audio
Format version                           : Version 1
Format profile                           : Layer 3
Codec ID                                 : 55
Codec ID/Hint                            : MP3
Duration                                 : 1h 45mn
Bit rate mode                            : Constant
Bit rate                                 : 224 Kbps
Channel(s)                               : 2 channels
Sampling rate                            : 44.1 KHz
Compression mode                         : Lossy
Stream size                              : 169 MiB (12%)
Alignment                                : Split accross interleaves
Interleave, duration                     : 40 ms (1.00 video frame)
Interleave, preload duration             : 500 ms
Writing library                          : LAME3.98.4






Sources 


Video ...Sem.psihopatov.2012.D.DVD / Thx

Audio ..........p2p DVDSCR / Thx



Went with R5 ......no watermarks better allround 



 
http://cdn.piczend.com/images/GJ8BsNsO/1357602957_1.png 
http://cdn.piczend.com/images/BvRgoGQ8/1357602965_3.png 
http://cdn.piczend.com/images/IeOzOt2b/1357602963_4.png 
http://cdn.piczend.com/images/OyzdjTNU/1357602964_22.png




Greets:
 Tickle Bear and the rest of the Gang